<svg xmlns="http://www.w3.org/2000/svg" version="1.1" xmlns:xlink="http://www.w3.org/1999/xlink" width="512" height="512" x="0" y="0" viewBox="0 0 510 510" style="enable-background:new 0 0 512 512" xml:space="preserve" class=""><rect width="510" height="510" rx="102" ry="102" fill="#dbe9fe" shape="rounded"></rect><g transform="matrix(0.6,0,0,0.6,102,102)"><path d="M397.5 0c-57.897 0-105 47.103-105 105 0 57.898 47.103 105 105 105s105-47.102 105-105c0-57.897-47.103-105-105-105zM388 146.213l-40.606-40.606 21.213-21.213L388 103.787l38.394-38.394 21.213 21.213zM202.5 360c-33.084 0-60 26.916-60 60h120c0-33.084-26.916-60-60-60z" fill="#1c51db" opacity="1" data-original="#000000" class=""></path><circle cx="202.5" cy="300" r="30" fill="#1c51db" opacity="1" data-original="#000000" class=""></circle><path d="M262.5 105c0-27.732 8.409-53.534 22.806-75H7.5v480h390V240c-74.44 0-135-60.561-135-135zm-195-15h135v30h-135zm0 60h165v30h-165zm0 60h60v30h-60zm225 240h-180v-30c0-33.852 18.79-63.393 46.484-78.757C148.78 330.483 142.5 315.965 142.5 300c0-33.084 26.916-60 60-60s60 26.916 60 60c0 15.965-6.28 30.483-16.484 41.243C273.71 356.607 292.5 386.148 292.5 420z" fill="#1c51db" opacity="1" data-original="#000000" class=""></path></g></svg>