<svg xmlns="http://www.w3.org/2000/svg" version="1.1" xmlns:xlink="http://www.w3.org/1999/xlink" width="512" height="512" x="0" y="0" viewBox="0 0 24 24" style="enable-background:new 0 0 512 512" xml:space="preserve" class=""><rect width="24" height="24" rx="4.8" ry="4.8" fill="#dbe9fe" shape="rounded"></rect><g transform="matrix(0.6,0,0,0.6,4.796414184570311,4.803767804056405)"><path d="M23.04.95a2.884 2.884 0 0 0-4.03-.21l-8.82 8.83a1.033 1.033 0 0 0-.29.59l-.39 3.22c-.07.576.481 1.268 1.11 1.11l3.22-.39a1.033 1.033 0 0 0 .59-.29l8.82-8.83a2.857 2.857 0 0 0-.21-4.03z" fill="#1c51db" opacity="1" data-original="#000000" class=""></path><path d="m14.09 16.08-3.23.4a3.044 3.044 0 0 1-3.34-3.35l.4-3.22a2.96 2.96 0 0 1 .85-1.75L13.92 3H3a3.009 3.009 0 0 0-3 3v15a3.009 3.009 0 0 0 3 3h14a3.009 3.009 0 0 0 3-3v-9.93l-4.16 4.16a2.961 2.961 0 0 1-1.75.85z" fill="#1c51db" opacity="1" data-original="#000000" class=""></path></g></svg>