<svg xmlns="http://www.w3.org/2000/svg" version="1.1" xmlns:xlink="http://www.w3.org/1999/xlink" width="512" height="512" x="0" y="0" viewBox="0 0 512 512" style="enable-background:new 0 0 512 512" xml:space="preserve" class=""><rect width="512" height="512" rx="102.4" ry="102.4" fill="#dbe9fe" shape="rounded"></rect><g transform="matrix(0.7,0,0,0.7,76.800146484375,74.87821998596192)"><path d="m409.841 435.945-48.994-48.994 21.213-21.213 27.781 27.781 73.183-73.183c-17.176-16.673-40.587-26.957-66.358-26.957-47.464 0-86.933 34.868-94.15 80.333h-39.475c-6.728-27.022-31.191-47.109-60.267-47.109s-53.538 20.086-60.267 47.109h-40.133c-6.728-27.022-31.191-47.109-60.267-47.109C27.862 326.604 0 354.466 0 388.713s27.862 62.109 62.109 62.109c29.076 0 53.538-20.086 60.267-47.109h40.133c6.728 27.022 31.191 47.109 60.267 47.109s53.538-20.086 60.267-47.109h39.475c7.217 45.465 46.686 80.333 94.15 80.333 52.567 0 95.333-42.767 95.333-95.333 0-15.9-3.918-30.9-10.832-44.095zM327.954 252.211c0-37.184-19.396-69.922-48.601-88.63-15.651 12.137-35.284 19.373-56.577 19.373s-40.926-7.236-56.577-19.373c-29.205 18.709-48.601 51.447-48.601 88.63v41.805h210.356z" fill="#1c51db" opacity="1" data-original="#000000" class=""></path><circle cx="222.775" cy="90.454" r="62.5" transform="rotate(-13.34 222.426 90.559)" fill="#1c51db" opacity="1" data-original="#000000" class=""></circle></g></svg>